<svg xmlns="http://www.w3.org/2000/svg" width="512" height="512" viewBox="0 0 91 91" fill="black">
  <path fill-rule="evenodd" clip-rule="evenodd" d="M25.5135 20.415H64.7115C67.2629 20.415 69.3503 18.3271 69.3503 15.7753V4.87177C69.3503 2.3199 71.4378 0.23199 73.9892 0.23199H85.5862C88.1376 0.23199 90.225 2.3199 90.225 4.87177V39.6701C90.225 42.222 88.1376 44.3099 85.5862 44.3099H77.7002C75.1489 44.3099 73.0614 46.3978 73.0614 48.9497V85.372C73.0614 87.9238 70.9739 90.0117 68.4226 90.0117H52.1867C51.027 90.0117 49.8673 88.8518 49.8673 87.6918V73.0765C49.8673 71.9166 51.027 70.7567 52.1867 70.7567H54.5061C55.8978 70.7567 56.8255 69.8287 56.8255 68.4368V63.797C56.8255 62.637 55.8978 61.4771 54.5061 61.4771H35.9508C34.7911 61.4771 33.6314 62.405 33.6314 63.797V68.4368C33.6314 69.5967 34.5592 70.7567 35.9508 70.7567H38.2703C39.43 70.7567 40.5897 71.9166 40.5897 73.0765V87.6918C40.5897 88.8518 39.43 90.0117 38.2703 90.0117H22.0344C19.483 90.0117 17.3956 87.9238 17.3956 85.372V48.7177C17.3956 46.1658 15.3081 44.0779 12.7568 44.0779H4.63882C2.08747 44.0779 0 41.99 0 39.4381V4.63978C0 2.0879 2.08747 0 4.63882 0H16.2359C18.7872 0 20.8747 2.0879 20.8747 4.63978V15.5433C20.8747 18.3271 22.9622 20.415 25.5135 20.415Z" fill="white"/>
</svg>